<svg version="1.2" xmlns="http://www.w3.org/2000/svg" viewBox="0 0 600 600" width="600" height="600">
	<title>circle-svg</title>
	<style>
		.s0 { fill: #ffffff } 
	</style>
	<path id="Forme 1" fill-rule="evenodd" class="s0" d="m300 542c-133.8 0-242-108.2-242-242 0-133.8 108.2-242 242-242 133.8 0 242 108.2 242 242 0 133.8-108.2 242-242 242zm-23-462.9c-4.7 0.5-14.2 2-21.3 3.4-7 1.4-17.1 3.9-22.4 5.6-5.4 1.7-14.4 5.1-20.1 7.5-5.6 2.4-14.4 6.7-19.4 9.5-5.1 2.8-13.1 7.6-17.8 10.7-4.7 3.1-13.7 10-20 15.3-6.3 5.2-15.4 14-20.3 19.5-4.8 5.4-11.8 14.2-15.5 19.4-3.8 5.2-9.6 14.2-13 20-3.4 5.8-8.4 15.8-11.2 22.2-2.7 6.5-6.5 16.9-8.4 23-1.9 6.2-4.4 16.2-5.5 22.3-1.1 6.1-2.5 15.9-3.1 22-0.5 6.1-1 15.3-1 20.5 0 5.2 0.5 14.4 1 20.5 0.6 6.1 2 15.9 3.1 22 1.1 6.1 3.6 16.1 5.5 22.2 1.9 6.2 5.7 16.6 8.4 23 2.8 6.5 7.8 16.5 11.2 22.3 3.4 5.8 9.2 14.8 13 20 3.7 5.2 10.7 14 15.5 19.4 4.9 5.5 14 14.3 20.3 19.5 6.3 5.3 15.3 12.2 20 15.3 4.7 3.1 12.6 7.8 17.5 10.5 4.9 2.8 12.8 6.7 17.5 8.7 4.7 2.1 13.7 5.5 20 7.6 6.3 2.2 17.1 5 24 6.4 6.9 1.3 17.4 2.9 23.5 3.5 6.1 0.6 15.7 1.1 21.5 1.1 5.8 0 15.4-0.5 21.5-1.1 6.1-0.6 16.6-2.2 23.5-3.5 6.9-1.4 17.7-4.2 24-6.4 6.3-2.1 15.3-5.5 20-7.6 4.7-2 12.6-5.9 17.5-8.7 4.9-2.7 12.8-7.4 17.5-10.5 4.7-3.1 13.7-10 20-15.3 6.3-5.3 15.1-13.6 19.4-18.5 4.4-4.9 11-13 14.6-17.9 3.7-4.9 9.3-13.3 12.4-18.5 3.2-5.2 7.7-13.6 10.1-18.5 2.3-4.9 5.9-13.5 8-19 2-5.5 5-14.9 6.5-21 1.6-6.1 3.6-16.4 4.6-23 1.3-8.3 1.8-18.2 1.8-32 0.1-11-0.5-24.1-1.2-29-0.7-4.9-2-12.6-2.8-17-0.9-4.4-3.1-13.1-5-19.3-1.9-6.1-5.6-16.3-8.2-22.5-2.7-6.1-7.6-16-11-22-3.4-5.9-9.3-15.1-13.2-20.5-3.8-5.3-10.9-14.2-15.7-19.6-4.9-5.5-14-14.3-20.3-19.5-6.3-5.3-15.3-12.2-20-15.3-4.7-3.1-12.6-7.8-17.5-10.5-4.9-2.8-12.8-6.7-17.5-8.7-4.7-2.1-13.7-5.5-20-7.6-6.3-2.2-17.1-5-24-6.4-6.9-1.3-17.4-2.9-23.5-3.5-6.1-0.6-16.6-1-23.5-1-6.9 0.1-16.3 0.6-21 1z"/>
</svg>