<svg version="1.2" xmlns="http://www.w3.org/2000/svg" viewBox="0 0 512 512" width="512" height="512">
	<title>Nouveau projet</title>
	<style>
		.s0 { fill: #ffffff } 
	</style>
	<path id="Remplissage couleur unie 1" class="s0" d="m84 0.1c4.1-0.1 11.5 0.6 16.5 1.5 5 0.8 12.4 2.9 16.5 4.6 4.1 1.7 10.7 5.1 14.5 7.6 5.3 3.3 21 18.4 124.5 121.7l58.8-58.7c44.7-44.6 60.4-59.7 65.7-63 3.9-2.5 10.4-5.9 14.5-7.6 4.1-1.7 11.8-3.8 17-4.8 6.8-1.1 12.4-1.5 19.5-1.1 6.3 0.4 13.3 1.5 18.8 3.1 4.8 1.4 11.1 3.8 13.9 5.2 2.9 1.5 8 4.5 11.3 6.8 3.3 2.2 8.5 6.5 11.5 9.6 3.1 3 7.4 8.2 9.6 11.5 2.3 3.3 5.3 8.4 6.8 11.3 1.4 2.8 3.8 9.1 5.2 13.9 1.6 5.5 2.7 12.5 3.1 18.8 0.4 7.1 0 12.7-1.1 19.5-1 5.2-3.1 12.9-4.8 17-1.7 4.1-5.1 10.7-7.6 14.5-3.3 5.3-18.4 21-121.7 124.5l58.7 58.8c44.6 44.7 59.7 60.4 63 65.7 2.5 3.9 5.9 10.4 7.6 14.5 1.7 4.1 3.8 11.8 4.8 17 1.2 6.8 1.5 12.3 1.1 19.5-0.4 5.5-1.5 13.3-2.7 17.3-1.1 3.9-3.3 10-4.8 13.4-1.6 3.5-4.8 9.2-7.2 12.8-2.5 3.6-6.9 9-10 12-3 3.1-8.4 7.5-12 10-3.6 2.4-9.3 5.6-12.8 7.2-3.4 1.5-9.5 3.7-13.5 4.8-3.9 1.2-11.7 2.3-17.2 2.7-7.2 0.4-12.7 0.1-19.5-1.1-5.2-1-12.9-3.1-17-4.8-4.1-1.7-10.6-5.1-14.5-7.6-5.3-3.3-21-18.4-124.5-121.7l-58.8 58.7c-44.7 44.6-60.4 59.7-65.7 63-3.8 2.5-10.4 5.9-14.5 7.6-4.1 1.7-11.8 3.8-17 4.8-6.8 1.2-12.3 1.5-19.5 1.1-5.5-0.4-13.3-1.5-17.3-2.7-3.9-1.1-10-3.3-13.5-4.8-3.4-1.6-9.1-4.8-12.7-7.2-3.6-2.5-9-6.9-12-10-3.1-3-7.5-8.4-10-12-2.4-3.6-5.6-9.3-7.2-12.8-1.5-3.4-3.7-9.5-4.8-13.5-1.2-3.9-2.3-11.7-2.7-17.2-0.4-7.2-0.1-12.7 1.1-19.5 1-5.2 3.1-12.9 4.8-17 1.7-4.1 5.1-10.6 7.6-14.5 3.3-5.3 18.4-21 121.7-124.5l-58.7-58.8c-44.6-44.7-59.7-60.4-63-65.7-2.5-3.8-5.9-10.4-7.6-14.5-1.7-4.1-3.8-11.8-4.8-17-1.1-6.8-1.5-12.4-1.1-19.5 0.4-6.3 1.5-13.3 3.1-18.8 1.4-4.8 3.8-11.1 5.2-14 1.5-2.8 4.5-7.9 6.8-11.2 2.2-3.3 6.5-8.5 9.6-11.5 3-3.1 8.4-7.5 12-10 3.6-2.4 9.2-5.6 12.5-7.1 3.3-1.5 8.7-3.5 12-4.4 3.3-1 8-2.1 10.5-2.5 2.5-0.4 7.9-0.8 12-0.9z"/>
</svg>