<svg version="1.2" xmlns="http://www.w3.org/2000/svg" viewBox="0 0 550 550" width="550" height="550">
	<title>cross-svg</title>
	<style>
		.s0 { fill: #ffffff } 
	</style>
	<path id="Remplissage couleur unie 1" class="s0" d="m74 41.2c4-0.6 11.4-0.7 16.5-0.4 5.1 0.2 12.7 1.4 16.9 2.6 4.3 1.2 11.3 3.8 15.3 5.8 5.7 2.7 23.1 15.8 138.1 106.1l51.4-65.2c39.1-49.6 52.9-66.4 57.8-70.3 3.6-3 9.6-7.1 13.5-9.3 3.9-2.2 11.3-5.1 16.3-6.8 6.6-1.9 12.1-2.9 19.2-3.4 6.3-0.3 13.4 0 19.1 0.9 4.9 0.8 11.4 2.5 14.4 3.5 3.1 1.2 8.5 3.5 12 5.4 3.6 1.8 9.2 5.5 12.6 8.2 3.4 2.6 8.3 7.3 10.9 10.3 2.6 3 6.2 7.7 8.1 10.4 1.7 2.6 4.8 8.6 6.8 13.2 2.2 5.3 4.1 12.1 5.3 18.3 1.2 7 1.5 12.6 1.2 19.5-0.4 5.3-1.6 13.2-2.8 17.4-1.2 4.3-3.8 11.3-5.8 15.3-2.7 5.7-15.8 23.1-106.1 138.1l65.2 51.4c49.6 39.1 66.4 52.9 70.3 57.8 3 3.6 7.1 9.6 9.3 13.5 2.2 3.9 5.2 11.3 6.8 16.3 2 6.6 2.9 12 3.4 19.2 0.2 5.5 0 13.4-0.7 17.5-0.6 4-2.1 10.4-3.2 13.9-1.1 3.7-3.6 9.7-5.6 13.6-2.1 3.8-5.8 9.7-8.5 13.1-2.6 3.4-7.5 8.4-10.7 11.3-3.3 2.8-8.6 6.7-11.9 8.7-3.2 1.9-9 4.8-12.8 6.3-3.8 1.7-11.4 3.7-16.8 4.8-7.1 1.2-12.6 1.6-19.5 1.2-5.3-0.4-13.2-1.6-17.4-2.8-4.3-1.2-11.2-3.8-15.3-5.8-5.7-2.7-23.1-15.8-138.1-106.1l-51.4 65.2c-39.1 49.6-52.9 66.4-57.8 70.3-3.5 3-9.6 7.1-13.5 9.3-3.9 2.2-11.3 5.1-16.3 6.8-6.6 2-12 2.9-19.2 3.4-5.5 0.2-13.4 0-17.5-0.7-4-0.6-10.4-2.1-14-3.2-3.6-1.1-9.6-3.6-13.5-5.6-3.8-2.1-9.7-5.8-13.1-8.5-3.4-2.6-8.4-7.5-11.3-10.7-2.8-3.3-6.7-8.6-8.7-11.9-1.9-3.2-4.8-9-6.3-12.8-1.7-3.8-3.7-11.4-4.8-16.8-1.2-7.1-1.6-12.6-1.2-19.5 0.4-5.3 1.6-13.2 2.8-17.4 1.2-4.3 3.8-11.2 5.8-15.3 2.7-5.7 15.8-23.1 106.1-138.1l-65.2-51.4c-49.6-39.1-66.4-52.9-70.3-57.8-2.9-3.5-7.1-9.6-9.3-13.5-2.2-3.9-5.1-11.3-6.8-16.3-1.9-6.6-2.9-12.1-3.4-19.2-0.3-6.3 0-13.4 0.9-19.1 0.8-4.9 2.5-11.4 3.5-14.5 1.2-3 3.5-8.4 5.4-11.9 1.8-3.6 5.5-9.2 8.2-12.6 2.6-3.4 7.5-8.4 10.7-11.3 3.3-2.8 8.5-6.7 11.6-8.5 3.1-1.9 8.2-4.6 11.4-5.8 3.2-1.4 7.7-3.1 10.1-3.8 2.5-0.7 7.8-1.7 11.9-2.3z"/>
</svg>