<svg version="1.2" xmlns="http://www.w3.org/2000/svg" viewBox="0 0 935 518" width="935" height="518">
	<title>dash-svg</title>
	<style>
		.s0 { fill: #bb176d } 
	</style>
	<path id="Calque 1" class="s0" d="m38.7 497.2c-0.7-0.4-4-3.8-7.6-7.4-3.5-3.6-8.6-9.9-11.5-14.2-2.9-4.4-6.8-11.2-8.7-15.3-1.9-4.2-4.7-11.6-6.2-16.8-1.5-5-3.1-13.8-3.6-19.6-0.5-5.6-0.7-13.6-0.3-17.6 0.2-4.1 1.5-11.5 2.8-16.5 1.4-5.1 4-12.5 6-16.6 2-4.1 6-10.8 8.8-14.8 3.1-4.1 8.3-9.8 12.1-13.3 3.7-3.4 10.3-8.6 14.6-11.7 4.2-3 12.7-8.2 18.8-11.6 6.1-3.2 20.4-10.2 31.7-15.5 11.3-5.2 163.4-71.1 338-146.5 174.6-75.3 323.4-139.3 330.6-142.2 7.3-2.9 18.2-6.9 24.2-8.8 6-2 14.6-4.5 19.2-5.5 4.4-1.1 12.9-2.4 18.7-2.9 5.7-0.5 15.1-0.4 20.7 0.2 5.7 0.6 14.1 2.3 18.9 3.9 4.9 1.5 12.2 4.7 16.4 6.9 5.8 3.2 9.8 6.3 17.2 13 7.2 6.6 10.8 10.7 14.8 16.5 2.8 4.3 7 11.9 9.4 16.9 2.2 5 5.1 12.5 6.3 16.6 1.1 4.2 2.6 10.9 3.1 14.9 0.5 4.1 1 10.9 1.1 15.4 0 4.3-0.7 12-1.5 17-0.9 5-3.3 13.3-5.4 18.4-3.3 8.1-4.8 10.6-12.7 20.6-7.4 9.5-10.3 12.5-17 17.8-4.4 3.5-12.3 8.8-17.5 12-5.3 3.2-15.9 8.8-23.8 12.7-7.9 3.8-147.2 64.3-309.5 134.5-162.3 70.2-314.9 136-339.1 146.3-24.1 10.3-49.6 20.6-56.6 23-7 2.3-16 5.1-20 6-4 1-11.1 2.4-15.7 3.1-4.7 0.9-12.6 1.4-17.5 1.3-4.9 0-13-0.8-18-1.7-5-0.9-13.2-3.3-18.3-5.4-5.1-2-12.1-5.7-15.5-8-3.4-2.2-6.8-4.6-7.4-5.1z"/>
</svg>