<svg version="1.2" xmlns="http://www.w3.org/2000/svg" viewBox="0 0 845 680" width="845" height="680">
	<title>dash-border-svg</title>
	<style>
		.s0 { fill: #bb176d } 
	</style>
	<path id="Calque 1" fill-rule="evenodd" class="s0" d="m843.5 591.9c-0.1 0.8-1.3 5.4-2.6 10.2-1.4 4.8-4.4 12.4-6.6 17.1-2.4 4.7-6.3 11.5-8.9 15.2-2.7 3.7-7.7 9.9-11.4 13.7-3.7 3.9-10.5 9.7-15.2 13-4.7 3.2-11.5 7.4-15.1 9.1-3.7 1.8-10.8 4.4-15.8 5.8-5 1.3-12.8 2.8-17.3 3.1-4.5 0.3-12.3 0.2-17.2-0.3-5.1-0.6-12.7-2.2-17.6-3.8-4.8-1.5-12.6-4.6-17.4-6.7-4.7-2.2-13.5-7-19.5-10.6-5.8-3.6-19-12.5-29.2-19.6-10.2-7.2-143.3-106-295.9-219.6-20.9-15.5-41.4-30.7-61.1-45.5-124.7-92.7-222-165.4-227.4-169.6-6.1-4.9-15-12.3-19.7-16.6-4.8-4.2-11.2-10.4-14.3-13.8-3.2-3.3-8.5-10-11.8-14.8-3.4-4.7-8-12.9-10.3-18-2.3-5.2-5-13.4-6.1-18.4-1-4.9-2-12.8-2.1-17.6-0.2-6.6 0.5-11.6 2.6-21.4 2.1-9.6 3.8-14.7 6.9-21.1 2.3-4.6 6.8-12 9.9-16.5 3.2-4.4 8.3-10.7 11.3-13.8 3-3.1 8.1-7.7 11.3-10.2 3.3-2.4 8.9-6.3 12.8-8.6 3.7-2.2 10.7-5.4 15.5-7.2 4.7-1.7 13.1-3.8 18.5-4.5 8.8-1.2 11.6-1.2 24.3 0.7 11.9 1.7 16 2.7 23.8 5.8 5.3 2 13.9 6.2 19.2 9.2 5.4 3 15.7 9.3 22.9 14.3 7.3 4.9 129.3 95.3 271.3 200.7 141.9 105.5 275.2 204.7 296.2 220.5 21 15.8 42.6 32.7 48.2 37.5 5.5 4.9 12.4 11.4 15.2 14.3 2.9 3 7.6 8.5 10.6 12.1 3 3.6 7.5 10.2 9.8 14.5 2.4 4.2 5.8 11.6 7.6 16.4 1.7 4.8 3.7 13.2 4.5 18.6 0.7 5.4 1.1 13.3 0.7 17.4-0.2 4.1-0.5 8.2-0.6 9zm-19.2-11.7c0.2-3.8-0.6-11-1.6-16-1.1-5.2-3.6-13.1-5.8-17.6-2.1-4.5-5.5-10.7-7.5-13.6-2.1-2.9-7.4-9.1-11.8-13.9-4.5-4.6-12.1-11.9-17-16-4.8-4.1-31.6-24.6-59.4-45.7-27.9-20.9-162.4-121.1-298.9-222.5-136.6-101.3-254.2-188.1-261.6-192.7-7.3-4.6-17.4-10.5-22.5-13-8.5-4.2-10.7-4.7-24.7-7.1-14.7-2.5-15.6-2.6-23.7-0.9-4.6 0.9-11.6 3-15.5 4.6-4 1.7-9.7 4.7-12.8 6.7-3 2-8.4 6.3-11.9 9.7-3.7 3.3-9.3 9.8-12.7 14.5-3.3 4.7-7.3 11.3-8.8 14.7-2 4.2-3.7 10.2-5.3 19.4-2.1 11.3-2.3 14.3-1.4 20.3 0.6 3.9 2.3 10.7 3.9 15.2 1.7 4.7 5.7 12.5 9.3 18 3.5 5.4 9.5 13 13.3 16.9 3.8 3.8 10.4 10.1 14.8 14 4.4 3.8 53.9 41.4 110.2 83.4 56.2 42 188.5 140.6 293.9 218.9 105.4 78.3 199 147.5 208 153.5 9 6.1 20.5 13.2 25.6 15.9 5.2 2.6 13.7 6.3 18.9 8.1 5.9 1.9 12.3 3.4 16.6 3.8 3.9 0.4 9.8 0.4 13.2 0.2 3.4-0.3 9.5-1.4 13.6-2.5 4.2-1.1 10.7-3.7 14.6-5.8 4.1-2 10.5-6.4 14.4-9.6 4.1-3.4 9.2-8.2 11.4-10.7 2.3-2.7 6.1-7.9 8.5-11.6 2.3-3.8 5.4-9.6 6.8-13 1.3-3.5 3.1-9 4-12.5 0.9-3.5 1.8-9.4 1.9-13.1z"/>
</svg>