<svg version="1.2" xmlns="http://www.w3.org/2000/svg" viewBox="0 0 560 916" width="560" height="916">
	<title>dash-svg</title>
	<style>
		.s0 { fill: #bb176d } 
	</style>
	<path id="Calque 1" class="s0" d="m455 0.2c0.8-0.1 5.5 0.3 10.5 0.8 5 0.5 13 2.1 18 3.5 5 1.5 12.4 4.2 16.5 6.1 4.1 2 11.1 5.9 15.5 8.9 4.4 2.9 11.3 8.6 15.4 12.7 4 4 9.3 10 11.6 13.3 2.4 3.3 6.2 9.8 8.4 14.5 2.2 4.7 5 12.1 6.1 16.5 1.1 4.4 2.3 12.1 2.7 17 0.3 5.1 0 12.9-0.7 18-0.6 5-2.3 13.2-3.6 18.3-1.3 5-4.5 14.5-7 21-2.6 6.4-9 20.9-14.3 32.2-5.3 11.3-79.5 159.5-164.8 329.5-85.3 170-158.1 314.6-161.8 321.5-3.7 6.9-9.5 16.9-12.9 22.3-3.3 5.4-8.3 12.8-11.1 16.5-2.7 3.7-8.4 10.1-12.5 14.2-4.1 4.1-11.3 10.1-16 13.2-4.7 3.2-12.3 7.3-17 9.2-4.7 1.9-12.3 4.2-17 5.2-6.5 1.3-11.5 1.5-21.5 1.1-9.8-0.4-15.2-1.2-22-3.1-4.9-1.5-13-4.6-18-6.9-4.9-2.4-11.9-6.3-15.5-8.7-3.6-2.5-9-6.7-12-9.4-3-2.8-7.8-7.7-10.7-11.1-2.8-3.3-7.2-9.6-9.8-14-2.5-4.4-6-12.3-7.7-17.5-2.7-8.4-3.1-11.2-3.5-24-0.4-12-0.1-16.2 1.6-24.5 1.1-5.5 3.7-14.7 5.7-20.5 2-5.8 6.5-17 10.1-25 3.6-8 71.4-143.9 150.6-302 79.2-158.1 153.8-306.6 165.7-330 11.9-23.4 24.8-47.7 28.6-54 3.8-6.3 9-14.2 11.4-17.5 2.5-3.3 7-8.9 10.1-12.5 3-3.6 8.7-9.1 12.5-12.2 3.8-3.1 10.5-7.7 14.9-10.3 4.4-2.5 12.3-5.9 17.5-7.6 5.2-1.7 12.9-3.4 17-3.8 4.1-0.5 8.2-0.9 9-0.9z"/>
</svg>