<svg version="1.2" xmlns="http://www.w3.org/2000/svg" viewBox="0 0 471 326" width="471" height="326">
	<title>half-circle-svg</title>
	<style>
		.s0 { fill: #000000 } 
		.s1 { fill: #bb176d } 
	</style>
	<path id="Forme 1" class="s0" d=""/>
	<path id="Remplissage couleur unie 1" class="s1" d="m14.9 0.4l455.6 165.8-5.6 13.2c-2.9 7.2-8.2 17.9-11.5 23.7-3.3 5.8-9.1 15-12.9 20.3-3.7 5.3-10.5 13.9-14.9 19-4.5 5.1-12.8 13.6-18.5 18.9-5.6 5.3-14.6 12.7-20 16.6-5.2 4-14 9.9-19.4 13.2-5.5 3.3-15.6 8.6-22.6 11.8-7 3.4-17.6 7.7-23.7 9.7-6 2.1-16.2 5-22.6 6.6-6.4 1.5-17.9 3.6-25.6 4.5-7.7 1-19 1.8-25.2 2-6.2 0.2-16.9-0.1-23.7-0.6-6.8-0.6-18.2-2-25.4-3.3-11.6-2-15.9-3.2-38.9-11.6-23-8.4-27-10.2-37.2-16.1-6.3-3.6-16-9.9-21.6-13.8-5.6-4-13.9-10.6-18.6-14.8-4.6-4.1-12.2-11.4-16.9-16.4-4.6-4.9-11.5-13-15.3-17.9-3.8-4.8-10-13.9-13.9-20-3.8-6.2-9.8-17.3-13.2-24.7-3.5-7.5-8-18.4-10.1-24.4-2-6-4.9-16.2-6.4-22.6-1.6-6.5-3.7-18-4.7-25.6-0.9-7.7-1.8-19.5-1.9-26.3-0.2-6.8 0.2-17.7 0.7-24.2 0.6-6.5 2-17.3 3.3-23.8 1.1-6.6 4-18.1 6.4-25.6z"/>
</svg>