<svg version="1.2" xmlns="http://www.w3.org/2000/svg" viewBox="0 0 800 500" width="800" height="500">
	<title>circle-svg</title>
	<style>
		.s0 { fill: #000000 } 
		.s1 { fill: #bb176d } 
	</style>
	<path id="Forme 1" class="s0" d=""/>
	<path id="Remplissage couleur unie 1" class="s1" d="m158 129h484.8l-0.7 14.3c-0.3 7.8-1.6 19.6-2.7 26.2-1.2 6.6-3.5 17.2-5.2 23.5-1.7 6.3-5.1 16.7-7.5 23-2.5 6.3-7.4 17.1-10.9 24-3.5 6.9-9.4 17-13.1 22.5-3.6 5.5-9.8 14.1-13.8 19-4 5-11.7 13.5-17.2 18.9-5.4 5.5-13.9 13.2-18.9 17.2-4.9 4-13.5 10.2-19 13.9-5.5 3.6-15.6 9.5-22.5 13-6.9 3.5-17.2 8.2-23 10.5-5.8 2.3-15.9 5.7-22.5 7.5-6.6 1.8-17.8 4.4-25 5.6-11.6 2.1-16 2.4-40.5 2.4-24.5 0-28.9-0.3-40.5-2.4-7.1-1.2-18.4-3.8-25-5.6-6.6-1.8-16.7-5.2-22.5-7.5-5.8-2.3-15.4-6.6-21.5-9.7-6-3-15.3-8.2-20.5-11.5-5.2-3.3-14.2-9.7-19.9-14.1-5.7-4.5-15.1-12.9-20.9-18.7-5.8-5.8-13.8-14.5-17.8-19.5-3.9-4.9-10.2-13.5-13.8-19-3.7-5.5-9.6-15.6-13.1-22.5-3.5-6.9-8.4-17.7-10.8-24-2.5-6.3-5.9-16.7-7.6-23-1.7-6.3-4-16.9-5.1-23.5-1.2-6.6-2.4-18.4-2.7-26.2z"/>
</svg>