<svg version="1.2" xmlns="http://www.w3.org/2000/svg" viewBox="0 0 399 429" width="399" height="429">
	<title>half-circle-svg</title>
	<style>
		.s0 { fill: #000000 } 
		.s1 { fill: #bb176d } 
	</style>
	<path id="Forme 1" class="s0" d=""/>
	<path id="Remplissage couleur unie 1" class="s1" d="m0.1 371.5l311.6-371.4 10.5 9.8c5.8 5.2 14 13.8 18.3 18.9 4.3 5.1 10.9 13.7 14.7 19.1 3.7 5.3 9.5 14.6 12.8 20.5 3.2 5.9 8.3 16.6 11.4 23.8 3 7.1 6.9 18.1 8.8 24.5 1.9 6.3 4.5 16.5 5.7 22.7 1.2 6.3 2.8 17.7 3.4 25.4 0.7 7.6 1.2 19.1 1 25.5-0.1 6.3-0.9 16.9-1.6 23.5-0.7 6.5-2.7 18-4.5 25.6-1.7 7.5-4.7 18.4-6.7 24.4-2 5.9-5.9 15.8-8.7 22-2.9 6.2-8.1 16.5-11.8 22.8-5.8 10.2-8.4 13.8-24.2 32.5-15.7 18.8-18.8 22-27.9 29.5-5.4 4.7-14.7 11.7-20.3 15.6-5.6 3.9-14.7 9.4-20.2 12.4-5.5 2.9-15 7.5-21.3 10.2-6.1 2.7-16.1 6.5-22 8.3-5.8 1.9-16.5 4.7-23.6 6.2-7.1 1.5-19.6 3.3-27.7 4-8.2 0.7-20 1.2-26.4 1.1-6.3-0.2-16.9-0.9-23.4-1.6-6.6-0.7-18.1-2.7-25.7-4.5-7.5-1.7-18.9-4.9-25.3-7.1-6.4-2.2-16.6-6.2-22.5-9-5.9-2.7-15.5-7.8-21.3-11.2-5.8-3.3-15.6-10-21.8-14.8z"/>
</svg>