<svg version="1.2" xmlns="http://www.w3.org/2000/svg" viewBox="0 0 465 279" width="465" height="279">
	<path id="cloud" fill-rule="evenodd" class="s0" d="m166.8 2c-2.6 0.4-8.2 1.8-12.5 3-4.3 1.2-11.2 3.7-15.3 5.6-4.1 2-11.1 5.9-15.5 8.8-4.4 3-11.5 8.9-15.7 13.2-4.3 4.4-9.6 10.4-11.8 13.4-2.3 3-5.9 8.6-8 12.5-2.1 3.9-5.2 11-6.9 16-1.6 5-3.7 13-4.6 18-0.8 5-1.5 13.2-1.5 18.3v9.2c-4.3 0-9.1 0.9-13.5 1.9-4.4 1.1-10.3 3-13 4.2-2.8 1.2-7.9 4.1-11.5 6.4-3.6 2.3-8.8 6.2-11.5 8.7-2.8 2.5-7.3 7.8-10.2 11.9-2.8 4.1-6.3 10.1-7.8 13.4-1.5 3.3-3.6 9.4-4.6 13.5-1.3 5-2 11-2 18-0.1 5.8 0.4 13.4 1.1 17 0.7 3.6 2.3 9.4 3.6 13 1.4 3.6 4.6 9.9 7.2 14 2.6 4.1 7.2 10 10.2 13 3 3.1 8.9 7.8 13 10.5 4.1 2.7 10.4 6.2 14 7.6 3.6 1.5 10 3.5 14.2 4.3 6.9 1.4 26 1.6 168.8 1.6 143.4 0 161.8-0.2 168.7-1.6 4.3-0.9 10.5-2.7 13.8-4 3.3-1.4 8.7-4.2 12-6.2 3.3-2 8.9-6.4 12.4-9.7 3.5-3.3 8.3-8.7 10.7-12 2.3-3.3 5.6-9 7.3-12.8 1.7-3.7 4-10.4 5.1-14.9 1.3-5.5 2-11.7 2-18.3 0-6.6-0.7-12.8-2-18.3-1.1-4.5-3.4-11.2-5.1-14.9-1.7-3.8-5-9.5-7.3-12.8-2.4-3.3-7.2-8.7-10.7-12-3.5-3.3-9.5-7.9-13.4-10.2-3.9-2.3-9.5-5.1-12.5-6.2-3-1.1-7.3-2.5-9.5-3l-4-1c-1.1-20.7-2-26.8-3.5-31.6-1.2-3.8-3.7-9.9-5.5-13.5-1.8-3.6-6.1-10.1-9.6-14.4-3.5-4.4-9.1-10-12.4-12.4-3.3-2.5-9.6-6.2-14-8.2-4.4-2.1-10.3-4.3-13-4.9-2.8-0.7-8.4-1.7-12.5-2.2-4.8-0.5-10.7-0.5-16.3 0.1-4.8 0.6-12.4 2.2-17 3.7-4.5 1.5-10.9 4.4-14.2 6.5l-6 3.7c-5.4-6.5-9.3-10.8-12-13.8-2.8-2.9-8.6-8-13-11.3-4.4-3.3-11.6-7.9-16-10.1-4.4-2.2-11.2-5.1-15-6.4-3.9-1.3-10.6-3-15-3.8-4.8-0.9-13.1-1.5-21-1.4-7.2 0.1-15.1 0.5-17.7 0.9z"/>
</svg>