<svg version="1.2" xmlns="http://www.w3.org/2000/svg" viewBox="0 0 572 399" width="572" height="399">
	<title>logo-svg</title>
	<style>
		.s0 { opacity: .3;fill: #ffffff } 
		.s1 { fill: #ffffff } 
	</style>
	<path id="Calque 2 copy 2" class="s0" d="m96.6 270.7c-0.8-1.2 253.5-257.1 257-259.8 3.6-2.7 9.7-8.9 11.9-9.8 2.4-0.9 5.4-1.3 7.5-1 1.9 0.3 5.7 2.1 8.5 3.9 2.7 1.8 7.4 6.3 10.5 10 3 3.8-4.3 40-9.2 44.1-4.8 4.2-241.2 243.7-246.6 248.1-7 5.5-39.6-35.4-39.6-35.5z"/>
	<path id="Calque 2" class="s1" d="m201.8 0c1.2 0 4.3 1 6.9 2.2 2.7 1.3 7.7 5 11.3 8.4 3.6 3.4 7.7 7.9 9.3 10 1.5 2.2 3.4 5.8 4.2 8.1 1.1 3.3 1.3 5.2 0.5 8.3-0.9 3.5-10.7 13.8-77.8 81-42.2 42.4-78.8 79.2-79.3 80.3-0.7 1.4-0.8 0.7-0.1 2.3 0.5 1.3 36.9 37.8 78.7 80 41.8 42.1 76.5 77.4 77.2 78.3 0.7 0.9 1.3 3.6 1.3 6.1 0 2.8-0.8 6.1-2.2 8.7-1.3 2.3-4.8 7.3-7.8 11-3.1 3.7-7.8 8.3-10.5 10.1-2.8 1.8-6.6 3.5-8.5 3.8-2.1 0.4-5.1 0-7.5-1-2.2-0.8-6.9-3.7-10.5-6.4-3.6-2.7-10.6-9.4-15.5-14.8-5-5.4-44.3-45.2-87.4-88.4-43.1-43.2-79.6-80.3-81-82.5-1.4-2.2-2.4-5.2-2.3-6.7 0.1-1.6 0.9-3.8 1.7-5 0.8-1.3 36.2-37.2 78.7-79.8 42.6-42.6 82.3-82.9 88.3-89.4 6.1-6.6 13.7-14 17-16.5 3.3-2.5 7.6-5.4 9.5-6.4 1.9-0.9 4.5-1.7 5.7-1.7z"/>
	<path id="Calque 2 copy" class="s1" d="m370.5 398.8c-1.2-0.1-4.4-1.1-7-2.3-2.6-1.2-7.7-5-11.2-8.4-3.6-3.3-7.8-7.8-9.3-10-1.5-2.1-3.4-5.8-4.2-8.1-1.2-3.3-1.3-5.2-0.5-8.3 0.8-3.4 10.7-13.7 77.7-81 42.2-42.4 78.9-79.2 79.4-80.3 0.7-1.3 0.8-0.6 0.1-2.2-0.5-1.3-36.9-37.8-78.7-80-41.8-42.2-76.6-77.4-77.3-78.3-0.6-0.9-1.2-3.7-1.2-6.2 0-2.8 0.8-6 2.2-8.7 1.3-2.3 4.8-7.2 7.8-11 3.1-3.7 7.8-8.2 10.5-10 2.7-1.8 6.5-3.6 8.5-3.9 2.1-0.3 5 0.1 7.5 1 2.2 0.9 6.9 3.8 10.5 6.5 3.5 2.7 10.5 9.3 15.5 14.7 4.9 5.4 44.3 45.2 87.4 88.4 43.1 43.2 79.5 80.3 80.9 82.5 1.5 2.3 2.5 5.3 2.4 6.8-0.1 1.5-0.9 3.8-1.7 5-0.8 1.2-36.3 37.1-78.8 79.7-42.5 42.7-82.2 82.9-88.3 89.5-6 6.5-13.6 13.9-16.9 16.4-3.3 2.6-7.6 5.4-9.5 6.4-2 1-4.5 1.8-5.8 1.8z"/>
</svg>