<svg version="1.2" xmlns="http://www.w3.org/2000/svg" viewBox="0 0 1440 400" width="1440" height="400">
	<title>vector-top-left-white-svg</title>
	<style>
		.s0 { fill: #ffffff } 
	</style>
	<g id="swoop-2-bottom-left-white">
		<path id="Remplissage couleur unie 1" class="s0" d="m1440 1v399h-1439.5l8.5-4.6c4.7-2.5 17.1-8.9 27.5-14.1 10.5-5.3 27.5-13.6 38-18.5 10.5-5 26.4-12.4 35.5-16.5 9.1-4.2 29.1-12.9 44.5-19.5 15.4-6.6 40.2-16.9 55-22.8 14.8-6 34.9-13.8 44.5-17.5 9.6-3.7 33.5-12.5 53-19.7 19.5-7.1 58.9-20.8 87.5-30.3 28.6-9.6 66.9-22 85-27.5 18.1-5.6 45.1-13.8 60-18.1 14.9-4.4 39.6-11.5 55-15.9 15.4-4.3 44-12.1 63.5-17.4 19.5-5.2 52.4-13.7 73-19 20.6-5.2 58.6-14.5 84.5-20.6 25.9-6.1 60.7-14.3 77.5-18 16.8-3.8 41.3-9.2 54.5-12 13.2-2.8 45.8-9.6 72.5-15.1 26.7-5.5 63.8-12.9 82.5-16.5 18.7-3.5 52.2-9.8 74.5-13.8 22.3-4.1 54-9.7 70.5-12.5 16.5-2.8 44-7.3 61-10.1 17-2.7 46.3-7.2 65-10 18.7-2.8 39.6-5.9 46.5-6.9 6.9-1 14.2-1.9 20-2.1z"/>
	</g>
</svg>