<svg version="1.2" xmlns="http://www.w3.org/2000/svg" viewBox="0 0 1440 400" width="1440" height="400" preserveAspectRatio="none">
	<title>vector-top-left-white-2-svg</title>
	<style>
		.s0 { fill: #ffffff } 
	</style>
	<g id="swoop-2-bottom-left-white">
		<path id="Remplissage couleur unie 1" class="s0" d="m-0.3 0.2l26.4 13.2c14.5 7.3 35.4 17.5 46.4 22.8 11 5.3 31.7 14.8 46 21.1 14.3 6.3 36.3 15.9 49 21.2 12.7 5.3 39.2 16.1 59 24 19.8 7.9 43.6 17.1 53 20.5 9.4 3.4 29.1 10.6 44 16 14.9 5.4 49.5 17.3 77 26.4 27.5 9.2 63.7 20.9 80.5 26.1 16.8 5.1 40.4 12.2 52.5 15.8 12.1 3.6 33.5 9.8 47.5 13.7 14 3.9 30.2 8.5 36 10.2 5.8 1.6 12.8 3.5 15.5 4.3 2.8 0.7 23.2 6.1 45.5 12 22.3 5.8 61.2 15.7 86.5 22 25.3 6.2 55.5 13.6 67 16.3 11.5 2.8 30 7.1 41 9.6 11 2.5 37.3 8.3 58.5 13 21.2 4.6 48.6 10.5 61 13.1 12.4 2.6 42.8 8.7 67.5 13.6 24.8 4.9 56 11 69.5 13.4 13.5 2.5 34 6.3 45.5 8.5 11.5 2.1 35.4 6.4 53 9.4 17.6 3 44.2 7.6 59 10 14.8 2.5 35.5 5.9 46 7.5 10.5 1.7 31.6 4.8 47 7.1 15.4 2.2 35.4 5.1 61 8.8l-1440.5 0.2-0.1-199.9z"/>
	</g>
</svg>